<svg class="chartis-logo" width="153" height="38" viewBox="0 0 153 38" fill="none" xmlns="http://www.w3.org/2000/svg">
	<g clip-path="url(#clip0_16_59)">
		<path d="M16.7354 5.19229C18.1311 5.19229 19.2896 4.06171 19.2896 2.63802C19.2896 1.21432 18.1311 0.076767 16.7354 0.076767C15.3396 0.076767 14.1811 1.20735 14.1811 2.63104C14.1811 4.05473 15.3117 5.18531 16.7354 5.18531V5.19229Z" fill="#0E2A4B"></path>
		<path d="M17.6566 6.48338L18.8151 11.229C19.3943 11.0685 19.9456 10.8312 20.476 10.573L18.0544 6.38567C17.9218 6.4415 17.7892 6.46244 17.6566 6.49036V6.48338Z" fill="#0E2A4B"></path>
		<path d="M17.6845 11.4663L16.4981 6.61598C16.0793 6.58807 15.6536 6.48338 15.2628 6.35078L12.8132 10.566C13.9438 11.1732 15.2628 11.5431 16.6376 11.5431C17.0075 11.5431 17.3495 11.5152 17.6915 11.4663H17.6845Z" fill="#0E2A4B"></path>
		<path d="M6.40662 21.6345C9.28191 23.6933 12.8132 24.9006 16.6586 24.9006C18.1102 24.9006 19.5339 24.7192 20.8738 24.3982L17.9497 12.5131C17.5309 12.569 17.0773 12.5899 16.6307 12.5899C15.0255 12.5899 13.5181 12.1921 12.2549 11.5082L6.40662 21.6275V21.6345Z" fill="#0E2A4B"></path>
		<path d="M5.47842 20.9506L11.2779 10.908C10.3008 10.1961 9.51221 9.32378 8.96088 8.29789L9.91001 7.82332C10.4125 8.63985 11.0685 9.3517 11.8362 9.93095L14.2579 5.74362C13.3646 5.03177 12.7853 3.92213 12.7853 2.68687C12.7853 2.03085 12.9668 1.39578 13.2599 0.844444C6.00881 3.11258 0.635077 9.70064 0.076767 17.6286L1.81451 16.7842C2.79155 18.3684 4.02681 19.7642 5.47842 20.9506Z" fill="#0E2A4B"></path>
		<path d="M26.8826 21.6345L21.0343 11.4872C20.4272 11.8292 19.7712 12.0665 19.0872 12.2549L21.9835 24.0632C23.7491 23.5328 25.4101 22.6953 26.8826 21.6415V21.6345Z" fill="#0E2A4B"></path>
		<path d="M30.1488 27.3293L28.09 23.7701C24.9286 25.9545 20.9506 27.2735 16.6237 27.2735C12.2968 27.2735 8.31882 25.9545 5.15739 23.7421L3.07768 27.3502L4.39669 28.1179L3.00092 29.2485C6.35078 34.4896 12.1991 38 18.8639 38C24.5308 38 29.6184 35.4667 33.0659 31.4608L28.8786 28.0621L30.1418 27.3223L30.1488 27.3293Z" fill="#0E2A4B"></path>
		<path d="M19.5548 0C20.2108 0.711846 20.6086 1.63306 20.6086 2.68687C20.6086 3.97796 19.9736 5.10854 19.0244 5.82039L21.3972 9.93095C22.1649 9.3517 22.8209 8.63985 23.3234 7.82332L24.2725 8.29789C23.7212 9.32378 22.9256 10.1961 21.9556 10.908L27.755 20.9506C29.2066 19.7642 30.4419 18.3684 31.4189 16.7842L33.4986 17.8101C32.389 19.841 30.8606 21.6345 28.9903 23.1071L31.1258 26.771L32.4169 26.0312L33.2334 31.2724C36.004 27.9504 37.686 23.6793 37.686 19.0174C37.686 8.7236 29.6463 0.369881 19.5548 0Z" fill="#0E2A4B"></path>
		<path d="M0.0279155 18.2916C0.0279155 18.5289 0 18.7662 0 19.0035C0 21.6624 0.551332 24.1958 1.52837 26.4848L2.07971 26.7989L4.24316 23.0861C2.53333 21.7392 1.10964 20.1061 0.0279155 18.2916Z" fill="#0E2A4B"></path>
		<path d="M55.3076 28.425C56.2847 28.425 58.1899 28.2575 60.0044 27.1129L60.0882 27.0711V23.5956L59.8788 23.805C58.9506 24.6494 57.4222 25.7102 55.3914 25.7102C51.9159 25.7102 49.2918 23.0443 49.2918 19.485C49.2918 15.9258 51.7903 13.1343 55.3495 13.1343C57.0454 13.1343 58.483 13.7693 59.8788 14.9976L60.0882 15.207V11.7803L60.0463 11.7385C58.6924 10.894 57.2547 10.5102 55.4332 10.5102C52.8092 10.5102 50.8621 11.229 49.2081 12.7574C47.9798 13.9857 46.4584 16.1003 46.4584 19.5339C46.4584 22.1579 47.3447 24.3214 49.2081 26.0522C50.3526 27.1129 52.3416 28.425 55.3076 28.425V28.425Z" fill="#0E2A4B"></path>
		<path d="M122.291 28.083H125.173V13.5181H129.067V10.8103H118.397V13.5181H122.291V28.083Z" fill="#0E2A4B"></path>
		<path d="M113.867 15.8909C113.867 15.0883 113.658 13.0505 111.795 11.7803C110.734 11.0615 109.38 10.7614 107.224 10.7614H104.048V28.0411H106.93V21.0971H107.182L112.011 28.0411L112.053 28.083H115.528L110.197 20.7133C112.486 20.1201 113.881 18.2986 113.881 15.8839L113.867 15.8909ZM106.923 18.5987H106.882V13.4762H107.642C109.931 13.4762 111.069 14.3207 111.069 15.9747C111.069 18.2637 108.912 18.5987 107.593 18.5987H106.916H106.923Z" fill="#0E2A4B"></path>
		<path d="M136.57 10.8103H133.687V28.09H136.57V10.8103Z" fill="#0E2A4B"></path>
		<path d="M148.887 17.838L147.192 17.1611C145.538 16.4841 145.37 15.5978 145.37 15.0883C145.37 13.9857 146.215 13.0575 147.785 13.0575C148.504 13.0575 149.055 13.225 149.606 13.6507C149.99 13.9927 150.199 14.3276 150.367 14.7115L152.356 13.5251C151.972 12.8062 151.511 12.2549 151.044 11.8292C150.493 11.3616 149.432 10.6847 147.617 10.6847C144.442 10.6847 142.662 12.89 142.662 15.1721C142.662 17.7124 144.735 18.8988 146.138 19.492L147.792 20.169C148.936 20.6365 150.248 21.3554 150.248 23.0931C150.248 24.8309 149.02 25.9335 147.457 25.9335C146.438 25.9335 145.719 25.5078 145.251 24.9146C144.826 24.4051 144.533 23.6026 144.533 22.7581L141.95 23.3095C142.076 24.454 142.46 25.5985 143.388 26.6105C144.274 27.5875 145.461 28.3063 147.408 28.3063C150.625 28.3063 152.914 26.0591 152.914 22.8419C152.914 20.8948 152.028 19.1151 148.894 17.845L148.887 17.838Z" fill="#0E2A4B"></path>
		<path d="M82.8742 27.8736L82.7905 28.083H85.8821L87.7455 23.9724H94.8151L96.5947 28.083H99.6863L91.4722 9.582L82.8742 27.8736V27.8736ZM88.89 21.2646L91.3047 15.9747L93.6356 21.2646H88.89V21.2646Z" fill="#0E2A4B"></path>
		<path d="M75.5045 17.5379H68.4768V10.8103H65.5945V28.083H68.4768V20.2527H75.5045V28.083H78.3868V10.8103H75.5045V17.5379Z" fill="#0E2A4B"></path>
	</g>
	<defs>
		<clipPath id="clip0_16_59">
			<rect width="152.907" height="38" fill="white"></rect>
		</clipPath>
	</defs>
</svg>
