<?xml version="1.0" encoding="UTF-8"?><svg id="Layer_2" xmlns="http://www.w3.org/2000/svg" viewBox="0 0 185.77 65.3"><defs><style>.cls-1{fill:#043b57;}.cls-2{fill:#ea7a24;}.cls-3{fill:#808285;}</style></defs><g id="Layer_1-2"><g><path class="cls-1" d="M2.03,.74V1.94l3.33,.19c0,2.87,.28,16.97,.28,25.43,0,9.34-1.94,12.39-5.64,14.79v.74c1.34-.19,3.19-.47,5.55-2.77,2.86-2.78,4.16-6.29,4.16-14.33,0-3.42-.14-20.07-.09-23.86l3.46-.19V.74c-.92,0-4.2,.1-5.68,.1-1.3,0-4.53-.1-5.37-.1m165.89,31.53c-2.68,0-6.38-.28-6.66-.83-.28-.46-.28-6.79-.28-7.44,0-5.5,0-19.46,.05-20.94,.04-.83,.09-1.02,.32-1.15,.46-.19,1.8-.33,2.96-.33,9.66,0,17.2,4.94,17.2,15.62,0,8.23-4.72,15.07-13.59,15.07m-27.5-16.64c-.83,.51-3.42,.56-4.76,.56l-2.77,.09c0-1.8,0-13.59,.19-14.19,.55-.33,1.71-.51,2.45-.51,4.62,0,8.17,2.03,8.17,7.07,0,3.37-1.71,6.05-3.28,6.98m-27.04,3.28h-7.67c-.61,0-.84-.09-.84-.23,0-.23,.19-.6,.28-.97l3.84-10.12c.19-.51,.28-.74,.46-.74,.14,0,.24,.28,.37,.65l3.84,10.4c.14,.32,.23,.65,.23,.74,0,.14-.14,.27-.5,.27m-27.83-3.28c-.83,.51-3.42,.56-4.76,.56l-2.77,.09c0-1.8,0-13.59,.19-14.19,.55-.33,1.71-.51,2.45-.51,4.62,0,8.18,2.03,8.18,7.07,0,3.37-1.71,6.05-3.28,6.98m-27.98,0c-.83,.51-3.42,.56-4.76,.56l-2.77,.09c0-1.8,0-13.59,.19-14.19,.55-.33,1.71-.51,2.45-.51,4.62,0,8.18,2.03,8.18,7.07,0,3.37-1.71,6.05-3.28,6.98m-27.04,3.28h-7.67c-.6,0-.83-.09-.83-.23,0-.23,.19-.6,.28-.97l3.84-10.12c.18-.51,.28-.74,.46-.74,.14,0,.23,.28,.37,.65l3.84,10.4c.13,.32,.23,.65,.23,.74,0,.14-.14,.27-.51,.27M168.76,.46c-2.64,0-13.04,.38-15.4,.38v1.2l3.42,.09c.14,3.05,.14,4.81,.14,20.71,0,4.99-.04,6.56-.14,9.06l-3.42,.18s-.42,.07-.63-.05c-.94-.56-1.91-1.63-4.31-5.08-1.99-2.87-6.56-9.99-6.56-10.22,0-.09,.04-.14,.28-.28,1.85-.92,5.45-3.29,5.45-7.86,0-5.59-4.16-8.14-9.29-8.14-1.34,0-2.73,.09-4.11,.19-1.39,.09-2.73,.19-4.12,.19-1.57,0-3.14-.1-4.72-.1V1.94l3.43,.19c.09,3.05,.05,4.81,.05,20.71,0,6.01,.04,6.56-.05,9.06,0,0-2.96,.29-3.42,.18-.46-.11-1.9-.51-2.04-.83-.64-1.2-1.75-4.07-5.08-12.62L111.21,0h-.69l-7.81,21.17c-2.68,7.21-3.19,8.14-3.61,9.11-.4,.95-.62,1.28-1.67,1.46-.83-.64-1.84-1.86-3.88-4.78-1.99-2.87-6.56-9.99-6.56-10.22,0-.09,.05-.14,.28-.28,1.85-.92,5.46-3.29,5.46-7.86,0-5.59-4.16-8.14-9.3-8.14-1.34,0-2.73,.09-4.12,.19-1.38,.09-2.73,.19-4.11,.19-1.57,0-3.14-.1-4.71-.1V1.94l3.42,.19c.09,3.05,.04,4.81,.04,20.71,0,6.01,.04,6.56-.04,9.06l-3.42,.18s-.39,.07-.59-.04c-.95-.55-1.92-1.62-4.33-5.08-1.99-2.87-6.56-9.99-6.56-10.22,0-.09,.04-.14,.28-.28,1.85-.92,5.45-3.29,5.45-7.86,0-5.59-4.16-8.14-9.29-8.14-1.34,0-2.73,.09-4.11,.19-1.39,.09-2.73,.19-4.12,.19-1.57,0-3.14-.1-4.71-.1V1.94l3.42,.19c.09,3.05,.05,4.81,.05,20.71,0,6.01,.04,6.56-.05,9.06l-3.42,.18s-1.5,.13-2.03-.83c-.65-1.2-1.76-4.07-5.09-12.62L28.36,0h-.69l-7.81,21.17c-2.68,7.21-3.19,8.14-3.61,9.11-.55,1.3-.74,1.44-3.14,1.62v1.39c.88,0,1.76-.09,3.37-.09,1.48,0,3.05,.09,4.21,.09v-1.21l-2.27-.14c-.65-.04-.88-.14-.88-.41,0-.23,.28-1.07,.46-1.62l3.14-9.01c.23-.65,.5-.88,1.01-.88h8.32c.97,0,1.11,.09,1.44,.93l3.37,9.2c.14,.32,.37,1.01,.37,1.2,0,.37-.19,.46-1.43,.56l-2.22,.18v1.21c3.33-.05,4.53-.09,5.87-.09,2.17,0,3.46,.09,4.62,.09h0c1.57-.05,2.95-.09,5.54-.09s4.02,.05,5.5,.09v-1.21l-3.38-.18c-.14-2.87-.14-4.02-.14-14.61,1.94-.04,2.36,0,2.96,.05,1.11,0,1.43,.05,1.71,.27,.37,.33,3.79,5.73,4.53,6.98,4.85,7.81,5.45,8.69,8.09,8.69,.55,.04,3.16,0,3.16,0,1.57-.05,2.96-.09,5.55-.09s4.02,.05,5.5,.09v-1.21l-3.38-.18c-.14-2.87-.14-4.02-.14-14.61,1.94-.04,2.36,0,2.96,.05,1.11,0,1.44,.05,1.71,.27,.37,.33,3.79,5.73,4.53,6.98,4.85,7.81,5.45,8.69,8.09,8.69,.48,.04,.76,0,2.39-.06,.46-.02,.98-.04,1.63-.04,1.48,0,3.05,.09,4.21,.09v-1.21l-2.27-.14c-.65-.04-.88-.14-.88-.41,0-.23,.27-1.07,.47-1.62l3.14-9.01c.23-.65,.51-.88,1.02-.88h8.32c.97,0,1.11,.09,1.43,.93l3.38,9.2c.14,.32,.37,1.01,.37,1.2,0,.37-.19,.46-1.43,.56l-2.22,.18v1.21c3.33-.05,4.53-.09,5.87-.09,2.17,0,3.47,.09,4.62,.09h0c1.57-.05,2.95-.09,5.55-.09s4.02,.05,5.5,.09v-1.21l-3.37-.18c-.14-2.87-.14-4.02-.14-14.61,1.94-.04,2.36,0,2.95,.05,1.11,0,1.43,.05,1.71,.27,.37,.33,3.79,5.73,4.53,6.98,4.85,7.81,5.46,8.69,8.08,8.69,.55,.04,.84,0,3.19-.09h5.32c1.15,0,6.84,.09,8.14,.09,10.54,0,18.95-5,18.95-16.5,0-10.59-7.4-16.32-17.01-16.32"/><g><path class="cls-3" d="M28.59,62.67h-3.42l-.96,2.26h-.99l3.69-8.41,3.6,8.41h-.99l-.94-2.26Zm-.35-.84l-1.35-3.21-1.37,3.21h2.72Z"/><path class="cls-3" d="M43.3,58.79c-.89-.81-1.72-.89-2.18-.89-1.74,0-2.92,1.29-2.92,3.05s1.23,3.01,2.94,3.01c.96,0,1.71-.49,2.17-.93v1.46c-.81,.48-1.65,.6-2.2,.6-1.46,0-2.37-.66-2.84-1.11-.94-.88-1.29-1.9-1.29-3.03,0-1.48,.61-2.5,1.29-3.14,.83-.78,1.79-1.05,2.9-1.05,.73,0,1.44,.13,2.14,.58v1.44Z"/><path class="cls-3" d="M47.54,60.09h3.44v-3.18h1.23v8.02h-1.23v-3.69h-3.44v3.69h-1.23v-8.02h1.23v3.18Z"/><path class="cls-3" d="M60.34,63h-3.43l-.88,1.94h-1.32l3.99-8.49,3.8,8.49h-1.32l-.84-1.94Zm-.49-1.16l-1.19-2.72-1.24,2.72h2.43Z"/><path class="cls-3" d="M66.44,56.91c.97,0,1.6,.12,2.12,.47,.88,.59,.95,1.54,.95,1.89,0,1.15-.71,2-1.78,2.24l2.5,3.43h-1.48l-2.3-3.28h-.22v3.28h-1.23v-8.02h1.43Zm-.2,3.68h.38c.34,0,1.71-.04,1.71-1.31,0-1.13-1.07-1.24-1.67-1.24h-.42v2.55Z"/><path class="cls-3" d="M75.15,58.07v6.87h-1.23v-6.87h-1.84v-1.15h4.91v1.15h-1.84Z"/><path class="cls-3" d="M80.79,56.91v8.02h-1.23v-8.02h1.23Z"/><path class="cls-3" d="M87.67,58.69c-.07-.18-.18-.35-.36-.51-.25-.2-.52-.29-.87-.29-.75,0-1.13,.44-1.13,.96,0,.24,.08,.66,.87,.97l.81,.32c1.48,.6,1.89,1.44,1.89,2.36,0,1.53-1.08,2.57-2.59,2.57-.93,0-1.48-.35-1.89-.81-.43-.48-.63-1.01-.67-1.56l1.22-.27c0,.4,.14,.77,.34,1.02,.23,.29,.57,.48,1.05,.48,.75,0,1.32-.54,1.32-1.35s-.63-1.15-1.15-1.37l-.77-.33c-.66-.28-1.64-.83-1.64-2.03,0-1.08,.84-2.12,2.35-2.12,.87,0,1.36,.32,1.61,.54,.22,.19,.44,.47,.61,.81l-.99,.58Z"/><path class="cls-3" d="M102.93,58.68c-.25-.25-.64-.55-1.05-.75-.42-.19-.91-.31-1.38-.31-1.85,0-3.22,1.49-3.22,3.34,0,2.18,1.77,3.27,3.24,3.27,.54,0,1.07-.16,1.49-.37,.46-.23,.78-.53,.93-.67v1.11c-.89,.64-1.82,.78-2.42,.78-2.38,0-4.15-1.8-4.15-4.13s1.79-4.17,4.2-4.17c.48,0,1.41,.06,2.37,.79v1.11Z"/><path class="cls-3" d="M105.62,60.93c0-2.39,1.87-4.15,4.17-4.15s4.17,1.76,4.17,4.15-1.85,4.15-4.17,4.15-4.17-1.77-4.17-4.15Zm.91,0c0,1.84,1.46,3.31,3.26,3.31s3.26-1.47,3.26-3.31-1.46-3.31-3.26-3.31-3.26,1.47-3.26,3.31Z"/><path class="cls-3" d="M116.82,64.93l1.34-8.47,3.08,6.77,3.14-6.78,1.25,8.48h-.91l-.76-5.58-2.73,5.92-2.69-5.92-.79,5.58h-.91Z"/><path class="cls-3" d="M130.43,56.91c.81,0,1.48,.1,2.02,.57,.59,.5,.73,1.21,.73,1.72,0,1.13-.71,2.25-2.54,2.25h-.78v3.49h-.89v-8.02h1.46Zm-.57,3.69h.73c1.06,0,1.7-.53,1.7-1.46,0-1.28-1.19-1.4-1.77-1.4h-.66v2.85Z"/><path class="cls-3" d="M139.75,62.67h-3.42l-.96,2.26h-.99l3.69-8.41,3.6,8.41h-.99l-.94-2.26Zm-.35-.84l-1.35-3.21-1.37,3.21h2.72Z"/><path class="cls-3" d="M144.3,64.93v-8.36l6.26,6.56v-6.22h.89v8.38l-6.25-6.56v6.19h-.89Z"/><path class="cls-3" d="M156.71,61.48l-2.63-4.57h1.03l2.05,3.58,2.07-3.58h1.03l-2.66,4.57v3.45h-.89v-3.45Z"/></g><path class="cls-2" d="M156.23,44.08c-9.8-.02-3.32,0-3.32,0,0,0-113.57-.02-123.37,0-9.05,.02-14.18,.48-21.74,1.32,7.56,.85,12.69,1.31,21.74,1.33,9.8,.02,123.37,0,123.37,0,0,0-6.49,.02,3.32,0,9.05-.02,14.19-.48,21.75-1.33-7.56-.84-12.7-1.3-21.75-1.32"/></g></g></svg>